<svg xmlns="http://www.w3.org/2000/svg" width="133" height="133" viewBox="0 0 133 133"><g transform="translate(963 -1286)"><g transform="translate(-963 1286)" fill="#9bc7d2" stroke="#fff" stroke-width="10"><circle cx="66.5" cy="66.5" r="66.5" stroke="none"/><circle cx="66.5" cy="66.5" r="61.5" fill="none"/></g><path d="M78.827,44.466H76.806V30.811a6.064,6.064,0,0,0-1.781-4.282L62.4,13.908a6.064,6.064,0,0,0-4.282-1.781H52.551V6.064A6.065,6.065,0,0,0,46.488,0H6.064A6.065,6.065,0,0,0,0,6.064V46.488a6.065,6.065,0,0,0,6.064,6.064H8.085a12.127,12.127,0,0,0,24.254,0h16.17a12.127,12.127,0,0,0,24.254,0h6.064a2.027,2.027,0,0,0,2.021-2.021V46.488A2.027,2.027,0,0,0,78.827,44.466ZM20.212,58.615a6.064,6.064,0,1,1,6.064-6.064A6.065,6.065,0,0,1,20.212,58.615ZM38.4,27.286A1.014,1.014,0,0,1,37.392,28.3H30.318v7.074a1.014,1.014,0,0,1-1.011,1.011H23.244a1.014,1.014,0,0,1-1.011-1.011V28.3H15.159a1.014,1.014,0,0,1-1.011-1.011V21.223a1.014,1.014,0,0,1,1.011-1.011h7.074V13.138a1.014,1.014,0,0,1,1.011-1.011h6.064a1.014,1.014,0,0,1,1.011,1.011v7.074h7.074A1.014,1.014,0,0,1,38.4,21.223ZM60.636,58.615A6.064,6.064,0,1,1,66.7,52.551,6.065,6.065,0,0,1,60.636,58.615ZM70.742,32.339H52.551V18.191h5.571l12.62,12.62Z" transform="translate(-932.052 1320.161)" fill="#be2b2b"/></g></svg>