<svg xmlns="http://www.w3.org/2000/svg" width="133" height="133" viewBox="0 0 133 133"><g transform="translate(753 -1253)"><g transform="translate(-753 1253)" fill="#9bc7d2" stroke="#fff" stroke-width="10"><circle cx="66.5" cy="66.5" r="66.5" stroke="none"/><circle cx="66.5" cy="66.5" r="61.5" fill="none"/></g><path d="M71.118,24.447a24.46,24.46,0,0,1-29.006,24.02l-3.335,3.752a3.333,3.333,0,0,1-2.492,1.119h-5.17v5.556a3.334,3.334,0,0,1-3.334,3.334H22.224v5.556a3.334,3.334,0,0,1-3.334,3.334H3.334A3.334,3.334,0,0,1,0,67.784V56.941a3.334,3.334,0,0,1,.976-2.357L23.451,32.11a24.449,24.449,0,1,1,47.667-7.663ZM46.671,17.779a6.667,6.667,0,1,0,6.667-6.667A6.667,6.667,0,0,0,46.671,17.779Z" transform="translate(-722.059 1283.941)" fill="#be2b2b"/></g></svg>