<svg xmlns="http://www.w3.org/2000/svg" width="215.766" height="89.861" viewBox="0 0 215.766 89.861"><g transform="translate(0 15.822)"><path d="M93.3,74.641a5.162,5.162,0,0,1,3.763,5.225c.034,1.386.026,2.781,0,4.164-.026,1.427-.509,1.883-1.971,1.883H67.233c-2.46,0-4.253,1.091-4.977,3.117-.674,1.887-.642,5.2,1.179,6.791a5.862,5.862,0,0,0,4.144,1.354q13.612-.013,27.222,0a2.3,2.3,0,0,1,2.06,3.618,2.087,2.087,0,0,1-1.329.73,15.285,15.285,0,0,1-2.448.079c-5.479,0-10.961.083-16.44-.021-5.589-.1-6.658,4.831-5.27,8.391a4.6,4.6,0,0,0,4.69,2.884q9.072-.013,18.148,0a8.987,8.987,0,0,1,1.374.128,1.569,1.569,0,0,1,1.466,1.675c0,3.986.116,7.976-.058,11.956-.141,3.3-2.392,5.242-5.743,5.364-.642.024-1.284,0-1.926,0-1.594,0-1.594,0-1.729-1.558a12.492,12.492,0,0,0-24.883-.344c-.195,2.1.214,1.9-2.08,1.9q-11.1.013-22.2,0c-1.408,0-1.408,0-1.483-1.408a12.482,12.482,0,0,0-24.819-.961c-.1.736-.169,1.474-.282,2.482-2.662-.128-5.327-.094-7.944-.441a4.624,4.624,0,0,1-3.541-3.237c-.116-.289-.255-.571-.381-.856V113.686c.282-1.237.5-2.495.867-3.7a4.255,4.255,0,0,1,3.115-2.927c1.671-.477,3.338-.969,4.994-1.5a6.3,6.3,0,0,0,3.815-3.49c1.352-2.781,2.7-5.563,4.1-8.308a9.507,9.507,0,0,1,8.894-5.533c1.742-.026,3.483-.032,5.225,0,1,.021,1.419-.4,1.406-1.393-.028-2.14,0-4.264,0-6.4,0-3.945.762-5.084,4.318-6.487H90.738C91.594,74.175,92.473,74.344,93.3,74.641Zm-76.487,31.5q7.1.017,14.2,0c1.346,0,1.5-.141,1.5-1.446,0-3.768-.032-7.533.024-11.3.015-1.057-.379-1.38-1.365-1.335-1.172.051-2.354-.021-3.522.017a8.455,8.455,0,0,0-7.771,4.9c-1.474,2.91-2.91,5.839-4.47,8.986a12.148,12.148,0,0,0,1.41.18Z" transform="translate(0.02 -73.95)" fill="#940004"/><path d="M319.919,147.756h16.109c1.16,0,2.283-.12,2.826-1.284a4.358,4.358,0,0,0,0-3.808c-.526-1.106-1.613-1.284-2.726-1.284H303.9c-2.908,0-4.371,2.354-3.077,4.966a2.635,2.635,0,0,0,2.664,1.4Q311.7,147.748,319.919,147.756Z" transform="translate(-236.087 -126.953)"/><path d="M79.763,297.67a9.59,9.59,0,1,1-9.608,9.567,9.684,9.684,0,0,1,9.608-9.567Zm.021,5.417a4.215,4.215,0,0,0-4.2,4.191,4.17,4.17,0,1,0,4.211-4.191Z" transform="translate(-55.141 -249.804)"/><path d="M326.142,307.069a9.6,9.6,0,1,1-19.2.013,9.6,9.6,0,1,1,19.2,0Zm-5.443.1a4.159,4.159,0,1,0-4.2,4.119A4.159,4.159,0,0,0,320.7,307.166Z" transform="translate(-241.264 -249.655)"/><path d="M360.993,214.89c-4.945,0-9.891.011-14.836,0-1.175,0-2.3.195-2.781,1.371a4.167,4.167,0,0,0,.214,3.98,2.836,2.836,0,0,0,2.659,1.021h29.569c1.145,0,2.283-.133,2.828-1.284a4.208,4.208,0,0,0-.051-3.9,2.571,2.571,0,0,0-2.568-1.183Q368.517,214.9,360.993,214.89Z" transform="translate(-269.589 -184.735)" fill="#020202"/></g><text transform="translate(126.766 24.399)" fill="#940004" font-size="13" font-family="Arvo-Bold, Arvo" font-weight="700"><tspan x="0" y="0">ALASKA </tspan><tspan x="0" y="15">KEYMAN</tspan><tspan x="0" y="30">LOCKSMITH</tspan><tspan x="0" y="45">SERVICES</tspan></text><g transform="translate(28.944 24.059)"><path d="M211.891,153.219l3.684,3.719L237.3,135.42l-22.746-22.97-6.057,5.991a2.268,2.268,0,0,1,1.44-.332c1.162.019,2.326.015,3.487.024a.841.841,0,0,1,.193.064c0-.569-.011-1.053,0-1.534a2.118,2.118,0,0,1,3-1.872,2.054,2.054,0,0,1,1.23,2.007l-.1,19.665c0,.8,0,1.609-.011,2.418l.261.032a16.237,16.237,0,0,1,4.461,1.14,8.344,8.344,0,0,1,2.518,1.581,3.875,3.875,0,0,1,1.07,1.577,2.919,2.919,0,0,1-.727,3,7.127,7.127,0,0,1-2.593,1.789c-.623.267-1.264.486-1.9.73a7.562,7.562,0,0,1,.047.755,5.206,5.206,0,0,1-1.973,4.031,5.28,5.28,0,0,1-6.119.374C212.471,153.686,212.189,153.433,211.891,153.219Z" transform="translate(-192.83 -112.45)" fill="none"/><path d="M198.827,161.064c-.214-.285-.447-.554-.642-.856a5,5,0,0,1-.742-3.423.219.219,0,0,1,.011-.081.139.139,0,0,0,0-.028c-.445-.158-.892-.3-1.329-.477a8.974,8.974,0,0,1-2.666-1.566,4.027,4.027,0,0,1-1.128-1.517,2.817,2.817,0,0,1,.441-2.882,6.442,6.442,0,0,1,2.381-1.872,15.007,15.007,0,0,1,4.81-1.391c.214-.03.445-.053.676-.081.019-4.119.041-8.231.062-12.364h-.2l-5.531-.017a1.59,1.59,0,0,1-.182-3.173h.3l5.43.026h.167v-1.977h-.156c-1.294,0-2.591,0-3.885-.021a1.566,1.566,0,0,1-1.585-1.881,3.733,3.733,0,0,1,.3-.717l.259-.255a2.268,2.268,0,0,1,1.44-.332c1.162.019,2.326.015,3.487.024a.841.841,0,0,1,.193.064c0-.569-.011-1.053,0-1.534a2.118,2.118,0,0,1,3-1.872,2.054,2.054,0,0,1,1.23,2.007l-.1,19.665c0,.8,0,1.609-.011,2.418l.261.032a16.237,16.237,0,0,1,4.461,1.14,8.344,8.344,0,0,1,2.518,1.581,3.875,3.875,0,0,1,1.07,1.577,2.919,2.919,0,0,1-.727,3,7.127,7.127,0,0,1-2.587,1.752c-.623.267-1.264.486-1.9.73a7.56,7.56,0,0,1,.047.755,5.206,5.206,0,0,1-1.973,4.031,5.28,5.28,0,0,1-6.119.374c-.312-.2-.595-.443-.892-.665Zm5.383-6.2a2.122,2.122,0,1,0-.026,3A2.122,2.122,0,0,0,204.21,154.859Zm-4.226-4.266a2.12,2.12,0,1,0-.019,3A2.12,2.12,0,0,0,199.985,150.593Zm5.482,3.036a2.12,2.12,0,1,0,0-3,2.12,2.12,0,0,0,0,3Z" transform="translate(-179.95 -120.483)" fill="#9bc7d2"/><path d="M154.137,176.109c-.214-.285-.447-.554-.642-.856a5,5,0,0,1-.742-3.423.219.219,0,0,1,.011-.081.142.142,0,0,0,0-.028c-.445-.158-.892-.3-1.329-.477a8.974,8.974,0,0,1-2.666-1.566,4.027,4.027,0,0,1-1.128-1.517,2.817,2.817,0,0,1,.441-2.882,6.442,6.442,0,0,1,2.381-1.872,15.007,15.007,0,0,1,4.81-1.391c.214-.03.445-.053.676-.081.019-4.119.041-8.231.062-12.364h-.2l-5.531-.017a1.59,1.59,0,0,1-.182-3.173h.3l5.43.026h.167v-1.977h-.156c-1.294,0-2.591,0-3.885-.021a1.566,1.566,0,0,1-1.585-1.881,3.734,3.734,0,0,1,.3-.717l-15.4,15.264Z" transform="translate(-135.26 -135.528)" fill="none"/><path d="M235.281,273.8a2.12,2.12,0,1,0-3-.024,2.12,2.12,0,0,0,3,.024Z" transform="translate(-211.047 -236.425)" fill="none"/><path d="M215.549,253.848a2.122,2.122,0,1,0-3-.021A2.122,2.122,0,0,0,215.549,253.848Z" transform="translate(-195.534 -220.737)" fill="none"/><path d="M252.234,251.061a2.122,2.122,0,1,0,3,0A2.122,2.122,0,0,0,252.234,251.061Z" transform="translate(-226.716 -220.919)" fill="none"/></g><rect width="5.135" height="89.861" transform="translate(115.54)"/></svg>