<svg xmlns="http://www.w3.org/2000/svg" width="133" height="133" viewBox="0 0 133 133"><g transform="translate(793 -944.227)"><g transform="translate(-793 944.227)" fill="#9bc7d2" stroke="#fff" stroke-width="10"><circle cx="66.5" cy="66.5" r="66.5" stroke="none"/><circle cx="66.5" cy="66.5" r="61.5" fill="none"/></g><path d="M57.963,34.352H54.886V19.836c0-9.548-8.115-19.116-16.2-19.116H25.176C17.091.72,9.3,10.288,9.3,19.836V34.352h-3.4c-.964,0-2.294,1.786-2.294,2.791v42.81c0,1.006,1.329,1.483,2.294,1.483h52.07c.967,0,2.621-.478,2.621-1.483V37.143c0-1.006-1.654-2.791-2.621-2.791ZM38.807,74.71H25.058l2.885-16.76a9.314,9.314,0,0,1-2.885-6.9c0-4.444,3.079-8.23,6.874-8.23s6.875,3.513,6.875,7.954c0,2.7-1.141,5.766-2.882,7.226Zm6.107-40.358H19.271V19.836c0-4.335,2.412-7.345,6.042-7.345H38.546c3.63,0,6.368,3.01,6.368,7.345Z" transform="translate(-758.429 969.307)" fill="#be2b2b"/></g></svg>