<svg xmlns="http://www.w3.org/2000/svg" width="653.745" height="400.18" viewBox="0 0 653.745 400.18"><path d="M557.08,4.062c14.944,5.364,22.071,15.327,22.467,31.191.2,8.277.153,16.6,0,24.855-.153,8.519-3.04,11.24-11.764,11.24H401.46c-14.688,0-25.392,6.514-29.709,18.61-4.023,11.265-3.832,31.037,7.038,40.54,7.216,6.386,15.557,8.1,24.74,8.085q81.259-.077,162.505,0c11.993,0,18.673,11.368,12.3,21.6-1.418,2.274-5.109,3.832-7.932,4.355-4.777.779-9.733.473-14.612.473-32.71,0-65.434.5-98.144-.128-33.362-.626-39.748,28.84-31.459,50.094,4.688,11.993,15.059,17.23,28,17.217q54.156-.077,108.337,0a53.646,53.646,0,0,1,8.2.766c5.646.881,8.736,4.368,8.749,10,0,23.8.69,47.616-.345,71.373-.843,19.682-14.28,31.293-34.282,32.021-3.832.14-7.664,0-11.5,0-9.516,0-9.516,0-10.32-9.3-2.938-33.835-26.478-60.44-59.712-67.5-42.367-9-84.835,22.326-88.833,65.447-1.162,12.555,1.277,11.329-12.415,11.342q-66.264.077-132.554,0c-8.4,0-8.4,0-8.851-8.4-2.031-38.19-33.49-68.4-72.8-69.879C110.986,266.665,77.318,295.289,72.5,332.2c-.588,4.394-1.009,8.8-1.686,14.816-15.889-.766-31.8-.562-47.424-2.631-10.435-1.367-17.2-9.439-21.139-19.325-.69-1.724-1.52-3.41-2.274-5.109v-82.8c1.686-7.383,2.963-14.893,5.173-22.109,2.81-9.158,9.337-14.829,18.6-17.473,9.975-2.848,19.925-5.786,29.811-8.941,10.767-3.385,17.882-10.844,22.773-20.832,8.072-16.6,16.106-33.209,24.485-49.6,11.035-21.573,28.84-32.621,53.121-33,10.4-.153,20.794-.192,31.191,0,5.978.128,8.468-2.363,8.392-8.315-.166-12.773,0-25.456,0-38.19C193.5,15.174,197.98,8.379,219.259,0h322.52C546.888,1.277,552.137,2.286,557.08,4.062ZM100.474,192.125q42.379.1,84.746,0c8.034,0,8.941-.843,8.941-8.634,0-22.492-.192-44.972.141-67.465.089-6.31-2.261-8.238-8.149-7.97-7,.307-14.05-.128-21.024.1-21.139.7-36.81,10.307-46.39,29.249-8.8,17.371-17.371,34.856-26.682,53.645a72.522,72.522,0,0,0,8.417,1.073Z" transform="translate(0.02)" fill="#940004"/><path d="M417.14,105.442H513.3c6.923,0,13.628-.715,16.872-7.664a26.018,26.018,0,0,0,0-22.735c-3.142-6.6-9.63-7.664-16.272-7.664H321.6c-17.358,0-26.094,14.05-18.367,29.645,3.219,6.488,8.941,8.379,15.9,8.353Q368.068,105.4,417.14,105.442Z" transform="translate(83.314 18.681)"/><path d="M127.51,223.67a57.809,57.809,0,0,1,57.4,57.017c.281,31.037-26.567,57.8-57.668,57.476a57.234,57.234,0,0,1,.294-114.468Zm.128,32.34a25.162,25.162,0,0,0-25.085,25.021,24.894,24.894,0,1,0,25.136-25.021Z" transform="translate(19.476 62.014)"/><path d="M421.574,280.727c.179,31.025-25.609,57.017-56.978,57.477-31.127.421-57.783-26.12-57.655-57.4a57.32,57.32,0,1,1,114.64,0Zm-32.493.575a24.831,24.831,0,1,0-25.073,24.587A24.831,24.831,0,0,0,389.08,281.3Z" transform="translate(85.126 61.961)"/><path d="M450.539,140.89c-29.517,0-59.048.064-88.565,0-7.012,0-13.718,1.162-16.6,8.187-3.155,7.83-3.64,16.221,1.277,23.757,3.679,5.62,9.8,6.093,15.876,6.093H539.04c6.833,0,13.628-.792,16.885-7.664A25.124,25.124,0,0,0,555.619,148c-3.168-5.965-9.03-7.076-15.327-7.063Q495.46,140.941,450.539,140.89Z" transform="translate(95.117 39.062)" fill="#020202"/><g transform="translate(172.825 49.11)"><path d="M228.745,281.831l21.994,22.2L380.444,175.576,244.659,38.45,208.5,74.213c2.555-1.865,5.531-2.018,8.6-1.98,6.935.115,13.884.089,20.819.141a5.019,5.019,0,0,1,1.15.383c0-3.4-.064-6.284,0-9.158a12.645,12.645,0,0,1,17.882-11.176A12.262,12.262,0,0,1,264.29,64.4L263.716,181.8c0,4.8,0,9.6-.064,14.433l1.558.192a96.93,96.93,0,0,1,26.631,6.808,49.814,49.814,0,0,1,15.033,9.439,23.131,23.131,0,0,1,6.386,9.413c2.248,6.833.217,12.7-4.343,17.882a42.545,42.545,0,0,1-15.48,10.678c-3.717,1.6-7.549,2.9-11.368,4.355.089,1.392.332,2.95.281,4.509a31.076,31.076,0,0,1-11.776,24.064,31.523,31.523,0,0,1-36.53,2.235C232.206,284.615,230.52,283.108,228.745,281.831Z" transform="translate(-114.992 -38.45)" fill="none"/><path d="M232.189,277.918c-1.277-1.7-2.669-3.308-3.832-5.109a29.824,29.824,0,0,1-4.432-20.436,1.306,1.306,0,0,1,.064-.485.831.831,0,0,0,0-.166c-2.657-.945-5.326-1.814-7.932-2.848a53.569,53.569,0,0,1-15.915-9.35,24.038,24.038,0,0,1-6.731-9.056c-2.491-6.233-1.277-11.942,2.631-17.2,3.7-5.02,8.736-8.417,14.216-11.176a89.587,89.587,0,0,1,28.713-8.3c1.277-.179,2.657-.319,4.036-.485.115-24.587.243-49.136.37-73.813h-1.213l-33.017-.1a9.49,9.49,0,0,1-1.086-18.942h1.763l32.417.153h1v-11.8H242.3c-7.727,0-15.468,0-23.195-.128a9.35,9.35,0,0,1-9.426-11.431,22.285,22.285,0,0,1,1.814-4.279l1.545-1.52c2.555-1.865,5.531-2.018,8.6-1.98,6.936.115,13.884.089,20.819.14a5.019,5.019,0,0,1,1.15.383c0-3.4-.064-6.284,0-9.158a12.645,12.645,0,0,1,17.882-11.176,12.262,12.262,0,0,1,7.344,11.981l-.575,117.393c0,4.8,0,9.6-.064,14.433l1.558.192a96.933,96.933,0,0,1,26.631,6.808,49.813,49.813,0,0,1,15.033,9.439A23.131,23.131,0,0,1,317.8,219.3c2.248,6.833.217,12.7-4.343,17.882a42.545,42.545,0,0,1-15.48,10.665c-3.717,1.6-7.549,2.9-11.368,4.355.089,1.392.332,2.95.281,4.509a31.076,31.076,0,0,1-11.776,24.064,31.523,31.523,0,0,1-36.53,2.235c-1.865-1.188-3.551-2.644-5.326-3.972Zm32.136-37.04a12.67,12.67,0,1,0-.153,17.882,12.67,12.67,0,0,0,.153-17.882ZM239.1,215.409a12.658,12.658,0,1,0-.115,17.882,12.658,12.658,0,0,0,.115-17.882Zm32.723,18.124a12.658,12.658,0,1,0,0-17.882,12.658,12.658,0,0,0,0,17.882Z" transform="translate(-119.535 -35.661)" fill="#9bc7d2"/><path d="M247.944,272.611c-1.277-1.7-2.669-3.308-3.832-5.109a29.824,29.824,0,0,1-4.432-20.436,1.306,1.306,0,0,1,.064-.485.832.832,0,0,0,0-.166c-2.657-.945-5.326-1.814-7.932-2.848a53.569,53.569,0,0,1-15.915-9.35,24.038,24.038,0,0,1-6.731-9.056c-2.491-6.233-1.277-11.942,2.631-17.2,3.7-5.02,8.736-8.417,14.216-11.176a89.587,89.587,0,0,1,28.713-8.3c1.277-.179,2.657-.319,4.036-.485.115-24.587.243-49.136.37-73.813h-1.213l-33.017-.1a9.49,9.49,0,0,1-1.086-18.942h1.763L258,95.29h1v-11.8h-.932c-7.727,0-15.468,0-23.195-.128a9.35,9.35,0,0,1-9.426-11.431,22.285,22.285,0,0,1,1.814-4.279L135.29,158.769Z" transform="translate(-135.29 -30.354)" fill="none"/><path d="M253.2,217.858a12.658,12.658,0,1,0-17.882-.141A12.658,12.658,0,0,0,253.2,217.858Z" transform="translate(-108.567 5.279)" fill="none"/><path d="M233.487,197.923a12.67,12.67,0,1,0-17.882-.128A12.67,12.67,0,0,0,233.487,197.923Z" transform="translate(-114.038 -0.255)" fill="none"/><path d="M255.34,180.13a12.67,12.67,0,1,0,17.882,0A12.67,12.67,0,0,0,255.34,180.13Z" transform="translate(-103.04 -0.191)" fill="none"/></g></svg>